Coordinates
version=1
nRows=29
nColumns=22
inDegrees=yes

Units are S.I. units (second, meters, Newtons, ...)
If the header above contains a line with 'inDegrees', this indicates whether rotational values are in degrees (yes) or radians (no).

endheader
time	pelvis_tilt	pelvis_list	pelvis_rotation	pelvis_tx	pelvis_ty	pelvis_tz	hip_flexion_r	hip_adduction_r	hip_rotation_r	knee_angle_r	ankle_angle_r	subtalar_angle_r	hip_flexion_l	hip_adduction_l	hip_rotation_l	knee_angle_l	ankle_angle_l	subtalar_angle_l	lumbar_extension	lumbar_bending	lumbar_rotation
      1.35000000	     -1.64535755	     -8.08196665	      4.17866842	      1.20433521	      0.96433059	     -0.31553626	      6.26461520	      9.43443667	     -3.43294023	    -17.03996481	      8.90844423	      0.10747312	      4.59457251	     -9.29506991	      1.72820881	    -14.52388467	     13.14597059	      0.01230376	      0.58212997	      7.96568424	     -6.76811164
      1.36000000	     -1.61646614	     -8.08373939	      4.21513090	      1.20317068	      0.96440769	     -0.31505579	      6.43355761	      9.46448461	     -3.50939395	    -17.23161164	      8.83779967	      0.02156819	      4.91341437	     -9.31634088	      1.81389164	    -14.96745567	     13.12340743	      0.09819744	      0.50081448	      7.98723208	     -6.73613537
      1.37000000	     -1.57732360	     -8.08722924	      4.25900555	      1.20188610	      0.96448905	     -0.31457210	      6.60118308	      9.49629945	     -3.59714786	    -17.42374817	      8.76532268	     -0.05845191	      5.25392219	     -9.33736538	      1.92451297	    -15.45168155	     13.10471693	      0.18936791	      0.39517243	      8.01421735	     -6.70602026
      1.38000000	     -1.52916464	     -8.09230030	      4.31280328	      1.20050242	      0.96457618	     -0.31408062	      6.75767904	      9.52962363	     -3.71065087	    -17.59909768	      8.69376574	     -0.13047243	      5.61714918	     -9.35802570	      2.06443461	    -15.97633254	     13.08379515	      0.28369303	      0.27003149	      8.04502250	     -6.66434483
      1.39000000	     -1.46783117	     -8.10057218	      4.37458640	      1.19900289	      0.96466697	     -0.31356990	      6.90310655	      9.56690787	     -3.85342095	    -17.76376278	      8.62307147	     -0.19518412	      5.99508837	     -9.38089515	      2.23265655	    -16.53555477	     13.06097359	      0.38059857	      0.11814155	      8.07996095	     -6.61322152
      1.40000000	     -1.38088276	     -8.11814158	      4.44466835	      1.19738839	      0.96476924	     -0.31304129	      7.02682656	      9.61480699	     -4.03796269	    -17.92200773	      8.56695837	     -0.24554387	      6.36263622	     -9.41308340	      2.43323025	    -17.10759641	     13.05288040	      0.46414474	     -0.07363355	      8.12772888	     -6.54125729
      1.41000000	     -1.32331297	     -8.12572497	      4.52789030	      1.19560692	      0.96483619	     -0.31250335	      7.17773138	      9.65049866	     -4.24333316	    -18.05221973	      8.48652324	     -0.31157869	      6.79278078	     -9.42828333	      2.66078030	    -17.70897234	     12.99596883	      0.59623873	     -0.24715676	      8.16203416	     -6.47774804
      1.42000000	     -1.22570606	     -8.13943004	      4.62048047	      1.19372597	      0.96493584	     -0.31195214	      7.28314511	      9.69238871	     -4.50971199	    -18.16472257	      8.43560324	     -0.35625259	      7.17423973	     -9.45214450	      2.90594486	    -18.28527792	     12.96136449	      0.69499973	     -0.47574200	      8.20665726	     -6.37060223
      1.43000000	     -1.15431183	     -8.14061450	      4.72569295	      1.19165861	      0.96500804	     -0.31140071	      7.41976767	      9.71747232	     -4.79369423	    -18.26266449	      8.37098502	     -0.40650369	      7.59197254	     -9.45709622	      3.16631494	    -18.84906254	     12.88465344	      0.82021652	     -0.69278235	      8.23791001	     -6.27073989
      1.44000000	     -1.09350826	     -8.12658229	      4.83995756	      1.18944188	      0.96507691	     -0.31085567	      7.56119375	      9.72151021	     -5.10504807	    -18.33532889	      8.31224545	     -0.45339430	      8.00813530	     -9.44422351	      3.42055688	    -19.36936929	     12.78254650	      0.94553189	     -0.91176813	      8.25510739	     -6.14272133
      1.45000000	     -1.06400413	     -8.09250021	      4.96641977	      1.18703245	      0.96512914	     -0.31030464	      7.73820870	      9.69920363	     -5.41524557	    -18.39406758	      8.24459376	     -0.50000664	      8.44471199	     -9.40724074	      3.67169851	    -19.83997673	     12.63741817	      1.08213495	     -1.11365825	      8.24777085	     -6.00981431
      1.46000000	     -1.09646910	     -8.04169824	      5.09503477	      1.18439830	      0.96512889	     -0.30973662	      7.98698950	      9.65338820	     -5.68858263	    -18.44474030	      8.17299676	     -0.56271478	      8.94067964	     -9.34840603	      3.90359795	    -20.26944168	     12.46874535	      1.26894871	     -1.26722723	      8.21910667	     -5.87421201
      1.47000000	     -1.13043077	     -7.94960575	      5.25285422	      1.18161128	      0.96517336	     -0.30920808	      8.23198589	      9.55240940	     -5.98312206	    -18.47627190	      8.09770010	     -0.58993511	      9.39571521	     -9.24167738	      4.15035362	    -20.60171820	     12.24245310	      1.41313538	     -1.43226498	      8.14549778	     -5.73496868
      1.48000000	     -1.22642455	     -7.82815536	      5.42094350	      1.17863302	      0.96518713	     -0.30868665	      8.54054231	      9.40708112	     -6.26341465	    -18.48952603	      8.01296121	     -0.60466412	      9.89830574	     -9.09937379	      4.37448572	    -20.87481322	     11.97039792	      1.58243398	     -1.54218496	      8.03409923	     -5.58277831
      1.49000000	     -1.36287364	     -7.68493325	      5.60224092	      1.17544048	      0.96518922	     -0.30818847	      8.90328656	      9.22551889	     -6.52085884	    -18.50658342	      7.92020035	     -0.60311335	     10.43627276	     -8.93036788	      4.57881343	    -21.10415193	     11.66994042	      1.78888470	     -1.62483908	      7.90049114	     -5.43763941
      1.50000000	     -1.55042234	     -7.52300636	      5.80167110	      1.17208255	      0.96518280	     -0.30770855	      9.31791231	      9.00834344	     -6.79306101	    -18.50477475	      7.80153604	     -0.57897323	     11.01270838	     -8.73666651	      4.76650965	    -21.27676538	     11.32759736	      2.05677335	     -1.65904650	      7.74110961	     -5.29015311
      1.51000000	     -1.74728143	     -7.31657128	      6.02433381	      1.16854596	      0.96521564	     -0.30727557	      9.74979989	      8.73182168	     -7.05955603	    -18.51186539	      7.68324709	     -0.54791536	     11.57207999	     -8.48664607	      4.98304346	    -21.38395060	     10.94659360	      2.33221475	     -1.70005171	      7.53298877	     -5.16215972
      1.52000000	     -1.99146002	     -7.11158609	      6.26627188	      1.16488509	      0.96523876	     -0.30688758	     10.22186370	      8.44006053	     -7.35243125	    -18.48839527	      7.53055609	     -0.50397410	     12.16859638	     -8.23073720	      5.18825912	    -21.44165975	     10.54809103	      2.68786387	     -1.68826263	      7.32611622	     -5.03748417
      1.53000000	     -2.21071880	     -6.86528770	      6.53488936	      1.16114435	      0.96535061	     -0.30657365	     10.64808974	      8.09967596	     -7.63811785	    -18.44012007	      7.38843509	     -0.47190620	     12.68702091	     -7.92062434	      5.44669178	    -21.40769087	     10.12515850	      3.01045510	     -1.70993306	      7.07846313	     -4.93305077
      1.54000000	     -2.48920618	     -6.68091236	      6.81190301	      1.15723581	      0.96537595	     -0.30624395	     11.16475313	      7.80775679	     -7.95362147	    -18.40828581	      7.18220965	     -0.41272409	     13.31615880	     -7.67295532	      5.66639233	    -21.42034585	      9.75272844	      3.52718097	     -1.66635566	      6.89074158	     -4.83987298
      1.55000000	     -2.69150055	     -6.44315628	      7.11630899	      1.15338308	      0.96555604	     -0.30604571	     11.54437237	      7.46442480	     -8.23927941	    -18.30636644	      7.01946235	     -0.37513226	     13.76566326	     -7.35709620	      5.98019250	    -21.29394150	      9.36267112	      3.89371695	     -1.69814829	      6.65994546	     -4.77012652
      1.56000000	     -2.91966030	     -6.25724338	      7.42703681	      1.14941968	      0.96566448	     -0.30586809	     11.97491624	      7.16299841	     -8.53241873	    -18.22469892	      6.81885825	     -0.31474534	     14.26805578	     -7.08641430	      6.31521487	    -21.20806358	      9.06086762	      4.38648870	     -1.69572976	      6.48383598	     -4.71282114
      1.57000000	     -3.12901380	     -6.12231084	      7.71648772	      1.14544465	      0.96576676	     -0.30568711	     12.37909717	      6.92143155	     -8.77636655	    -18.11892905	      6.56899678	     -0.21582758	     14.73776678	     -6.87419026	      6.65712185	    -21.13222493	      8.90638109	      5.09935458	     -1.69981131	      6.36773494	     -4.63338167
      1.58000000	     -3.26884407	     -5.97573732	      8.02129062	      1.14152188	      0.96591393	     -0.30560805	     12.69476981	      6.66563681	     -9.04277367	    -18.00265526	      6.36644308	     -0.13635385	     15.07770100	     -6.64203949	      7.09402647	    -21.03053357	      8.86946092	      5.62491197	     -1.76357187	      6.25183266	     -4.58104637
      1.59000000	     -3.37134747	     -5.86279992	      8.30312153	      1.13761989	      0.96605414	     -0.30552814	     12.95937857	      6.45720257	     -9.25955057	    -17.86076701	      6.14881094	     -0.04511819	     15.35924751	     -6.45128324	      7.55985454	    -20.98039772	      8.97045212	      6.21153830	     -1.85010550	      6.17771558	     -4.52316080
      1.60000000	     -3.42994211	     -5.78116257	      8.57468073	      1.13374703	      0.96615643	     -0.30545659	     13.18547005	      6.28453999	     -9.49414142	    -17.72952207	      5.95396242	      0.03761636	     15.58053539	     -6.29614079	      8.07308651	    -21.01563796	      9.27136034	      6.71988183	     -1.96284733	      6.13991219	     -4.47323061
      1.61000000	     -3.43331934	     -5.71303451	      8.83271710	      1.12992831	      0.96626303	     -0.30542221	     13.34783308	      6.13314021	     -9.72830914	    -17.59166727	      5.75970391	      0.09893794	     15.71153153	     -6.15875374	      8.62126488	    -21.13586653	      9.68415989	      6.98932105	     -2.11185551	      6.12615489	     -4.43354309
      1.62000000	     -3.44891106	     -5.69458091	      9.04379179	      1.12609857	      0.96626709	     -0.30532429	     13.53961419	      6.04165999	     -9.91036282	    -17.46558337	      5.54429743	      0.18875436	     15.86865493	     -6.08374220	      9.11205624	    -21.42337354	     10.26291992	      7.42130987	     -2.22362682	      6.16056245	     -4.37928685
      1.63000000	     -3.40649171	     -5.69252789	      9.23356177	      1.12232505	      0.96626882	     -0.30519883	     13.67778063	      5.97979257	    -10.09807431	    -17.35419405	      5.36968546	      0.24922837	     15.94961055	     -6.04292324	      9.54767002	    -21.85130033	     10.90985975	      7.54330926	     -2.37249394	      6.21020854	     -4.32174672
